# xmcd CD database file
#
# Track frame offsets:
#	182
#	14472
#	36932
#	55597
#	72345
#	84087
#	123510
#	134805
#	148480
#	161040
#	185677
#	201890
#	220975
#
# Disc length: 3279 seconds
#
# Revision: 0
# Processed by: cddbd v1.5PL3 Copyright (c) Steve Scherf et al.
# Submitted via: CDex 1.51
#
DISCID=cb0ccd0d
DTITLE=Duke Ellington - Black Beauty
DYEAR=1900
DGENRE=Jazz
TTITLE0=take the a train
TTITLE1=C Jam blues
TTITLE2=El gato
TTITLE3=Sophisticated Lady
TTITLE4=In a mellotone
TTITLE5=Mood indigo
TTITLE6=In a sentimental mood
TTITLE7=Prelude to a kiss
TTITLE8=B sharb blues
TTITLE9=Money jungle
TTITLE10=Fleurette Affricaine (African Flower)
TTITLE11=Caravan
TTITLE12=Solitude
EXTD=
EXTT0=
EXTT1=
EXTT2=
EXTT3=
EXTT4=
EXTT5=
EXTT6=
EXTT7=
EXTT8=
EXTT9=
EXTT10=
EXTT11=
EXTT12=
PLAYORDER=
